name processed_emg_signals						
nRows=155						
nColumns=7						
 						
endheader						
time	LGLTMED	LRF	LADDLONG	LST	LTA	LGM
0.627	0.042636049	0.071633197	0.037866457	0.236741121	0.855621152	0.350731773
0.628	0.04270709	0.071685323	0.038100282	0.238611252	0.854842623	0.351635359
0.629	0.042787033	0.071759708	0.038341158	0.240439289	0.853932484	0.352479177
0.63	0.042876277	0.071857019	0.038589122	0.242224194	0.852891984	0.353262576
0.631	0.042975213	0.071977916	0.038844205	0.243964947	0.851722485	0.353984943
0.632	0.043084231	0.072123051	0.039106436	0.245660548	0.85042546	0.354645711
0.633	0.043203717	0.072293069	0.03937584	0.247310014	0.849002485	0.355244355
0.634	0.04333405	0.072488604	0.039652436	0.248912385	0.847455237	0.355780397
0.635	0.043475604	0.072710281	0.039936239	0.250466719	0.84578549	0.35625341
0.636	0.043628749	0.072958709	0.040227259	0.2519721	0.843995109	0.356663014
0.637	0.043793843	0.073234486	0.0405255	0.253427631	0.842086046	0.357008886
0.638	0.043971241	0.073538193	0.040830958	0.254832442	0.840060336	0.357290754
0.639	0.044161286	0.073870393	0.041143627	0.256185688	0.837920091	0.357508404
0.64	0.044364314	0.074231632	0.04146349	0.257486547	0.835667495	0.357661681
0.641	0.044580651	0.074622434	0.041790526	0.258734227	0.8333048	0.357750488
0.642	0.044810612	0.075043304	0.042124704	0.259927964	0.830834321	0.35777479
0.643	0.0450545	0.07549472	0.042465987	0.261067021	0.828258431	0.357734616
0.644	0.045312609	0.075977138	0.042814331	0.262150695	0.825579555	0.357630058
0.645	0.045585218	0.076490987	0.043169682	0.263178311	0.822800167	0.357461275
0.646	0.045872595	0.077036667	0.043531977	0.264149229	0.819922784	0.357228491
0.647	0.046174993	0.077614551	0.043901145	0.265062841	0.816949959	0.356931997
0.648	0.046492651	0.078224979	0.044277108	0.265918574	0.813884282	0.356572155
0.649	0.046825796	0.078868261	0.044659775	0.266715895	0.810728369	0.356149393
0.65	0.047174636	0.079544674	0.045049048	0.267454303	0.807484861	0.355664211
0.651	0.047539367	0.080254457	0.045444819	0.268133338	0.804156417	0.355117176
0.652	0.047920167	0.080997818	0.04584697	0.268752582	0.800745713	0.354508926
0.653	0.048317196	0.081774925	0.046255372	0.269311655	0.797255434	0.353840171
0.654	0.048730601	0.082585908	0.046669888	0.26981022	0.79368827	0.353111686
0.655	0.049160508	0.08343086	0.047090369	0.270247984	0.790046915	0.35232432
0.656	0.049607028	0.084309831	0.047516657	0.270624698	0.786334059	0.351478986
0.657	0.050070251	0.085222833	0.047948584	0.270940158	0.782552387	0.350576669
0.658	0.050550251	0.086169834	0.048385969	0.271194209	0.778704575	0.349618417
0.659	0.051047082	0.087150759	0.048828624	0.271386742	0.774793284	0.348605346
0.66	0.051560779	0.088165493	0.049276349	0.271517695	0.770821159	0.347538635
0.661	0.05209136	0.089213873	0.049728936	0.27158706	0.766790827	0.346419526
0.662	0.05263882	0.090295695	0.050186163	0.271594874	0.762704891	0.345249322
0.663	0.053203137	0.091410708	0.050647802	0.271541229	0.75856593	0.344029385
0.664	0.053784269	0.092558616	0.051113614	0.271426267	0.754376494	0.342761135
0.665	0.054382153	0.093739078	0.05158335	0.271250182	0.750139104	0.341446045
0.666	0.054996708	0.094951707	0.052056751	0.271013224	0.745856249	0.340085642
0.667	0.055627831	0.09619607	0.052533551	0.270715691	0.741530385	0.338681503
0.668	0.056275402	0.09747169	0.053013474	0.270357939	0.73716393	0.337235252
0.669	0.056939279	0.098778041	0.053496235	0.269940376	0.732759268	0.335748557
0.67	0.057619301	0.100114554	0.053981542	0.269463463	0.728318742	0.334223131
0.671	0.058315287	0.101480613	0.054469094	0.268927718	0.723844656	0.332660723
0.672	0.059027037	0.102875559	0.054958584	0.26833371	0.719339276	0.331063118
0.673	0.059754331	0.104298686	0.055449698	0.267682063	0.714804822	0.329432134
0.674	0.060496932	0.105749246	0.055942113	0.266973453	0.710243476	0.32776962
0.675	0.061254582	0.107226448	0.056435503	0.266208612	0.705657375	0.326077448
0.676	0.062027006	0.108729455	0.056929534	0.265388322	0.701048612	0.324357514
0.677	0.06281391	0.110257392	0.057423869	0.264513418	0.696419238	0.322611731
0.678	0.063614982	0.111809341	0.057918166	0.263584785	0.691771261	0.320842028
0.679	0.064429894	0.113384345	0.058412076	0.262603359	0.687106642	0.319050344
0.68	0.0652583	0.114981407	0.058905252	0.261570127	0.682427301	0.317238626
0.681	0.066099836	0.116599492	0.059397339	0.260486121	0.677735112	0.315408822
0.682	0.066954126	0.118237531	0.059887982	0.259352423	0.673031906	0.313562882
0.683	0.067820774	0.119894417	0.060376826	0.25817016	0.668319471	0.31170275
0.684	0.068699372	0.12156901	0.060863511	0.256940503	0.66359955	0.309830359
0.685	0.069589497	0.123260138	0.06134768	0.255664667	0.658873843	0.307947634
0.686	0.07049071	0.124966597	0.061828975	0.254343907	0.65414401	0.306056477
0.687	0.071402563	0.126687155	0.062307039	0.252979519	0.649411664	0.304158775
0.688	0.072324591	0.128420551	0.062781516	0.251572838	0.644678379	0.302256387
0.689	0.073256319	0.130165499	0.063252053	0.250125234	0.639945685	0.300351145
0.69	0.074197262	0.13192069	0.063718299	0.248638111	0.635215073	0.298444849
0.691	0.075146922	0.13368479	0.064179908	0.247112906	0.63048799	0.296539261
0.692	0.076104793	0.135456447	0.064636535	0.245551086	0.625765845	0.294636107
0.693	0.077070358	0.137234288	0.065087844	0.243954146	0.621050004	0.292737068
0.694	0.078043094	0.139016927	0.065533501	0.242323607	0.616341796	0.290843779
0.695	0.079022467	0.140802961	0.065973179	0.240661013	0.611642507	0.288957826
0.696	0.080007939	0.142590977	0.066406559	0.238967927	0.606953389	0.287080743
0.697	0.080998965	0.144379549	0.066833327	0.237245932	0.602275652	0.285214007
0.698	0.081994993	0.146167247	0.067253178	0.235496626	0.59761047	0.283359037
0.699	0.082995469	0.147952632	0.067665816	0.233721621	0.592958981	0.281517192
0.7	0.083999832	0.149734264	0.068070952	0.231922535	0.588322284	0.279689768
0.701	0.08500752	0.1515107	0.06846831	0.230100998	0.583701446	0.277877992
0.702	0.086017968	0.153280502	0.06885762	0.228258641	0.579097498	0.276083027
0.703	0.08703061	0.155042231	0.069238625	0.226397099	0.574511437	0.274305964
0.704	0.088044876	0.156794458	0.06961108	0.224518003	0.569944229	0.272547822
0.705	0.0890602	0.15853576	0.069974748	0.222622981	0.565396807	0.270809548
0.706	0.090076015	0.160264726	0.070329407	0.220713655	0.560870075	0.269092014
0.707	0.091091753	0.161979959	0.070674846	0.218791635	0.556364906	0.267396014
0.708	0.09210685	0.163680076	0.071010867	0.216858519	0.551882145	0.26572227
0.709	0.093120744	0.165363714	0.071337285	0.21491589	0.547422612	0.264071422
0.71	0.094132878	0.16702953	0.07165393	0.212965311	0.542987098	0.262444033
0.711	0.095142694	0.168676202	0.071960642	0.211008326	0.538576371	0.26084059
0.712	0.096149642	0.170302436	0.072257279	0.209046453	0.534191177	0.259261498
0.713	0.097153177	0.171906965	0.07254371	0.207081186	0.529832237	0.257707086
0.714	0.098152756	0.17348855	0.07281982	0.205113988	0.525500255	0.256177603
0.715	0.099147845	0.175045987	0.073085508	0.203146293	0.521195911	0.254673222
0.716	0.100137915	0.176578104	0.073340689	0.2011795	0.516919871	0.253194036
0.717	0.101122443	0.178083768	0.07358529	0.199214973	0.512672781	0.251740066
0.718	0.102100914	0.179561881	0.073819256	0.19725404	0.508455272	0.250311253
0.719	0.103072818	0.18101139	0.074042545	0.195297987	0.504267963	0.248907467
0.72	0.104037656	0.18243128	0.07425513	0.193348059	0.500111456	0.247528504
0.721	0.104994933	0.183820584	0.074456999	0.191405459	0.495986343	0.24617409
0.722	0.105944166	0.185178379	0.074648157	0.189471344	0.491893204	0.244843879
0.723	0.106884876	0.186503792	0.074828621	0.187546826	0.48783261	0.24353746
0.724	0.107816597	0.187795997	0.074998423	0.185632968	0.483805121	0.242254356
0.725	0.108738868	0.189054219	0.075157611	0.183730787	0.479811291	0.240994025
0.726	0.109651237	0.190277738	0.075306247	0.181841246	0.475851665	0.239755866
0.727	0.110553264	0.191465884	0.075444408	0.179965261	0.471926781	0.238539217
0.728	0.111444514	0.192618045	0.075572182	0.178103694	0.468037174	0.237343363
0.729	0.112324564	0.193733661	0.075689675	0.176257356	0.464183369	0.236167533
0.73	0.113192998	0.194812232	0.075797003	0.174427006	0.460365889	0.235010906
0.731	0.11404941	0.195853314	0.075894299	0.172613348	0.45658525	0.233872615
0.732	0.114893404	0.19685652	0.075981706	0.170817033	0.452841966	0.232751747
0.733	0.115724592	0.197821523	0.076059382	0.16903866	0.449136544	0.231647346
0.734	0.116542597	0.198748054	0.076127495	0.167278772	0.445469486	0.23055842
0.735	0.117347049	0.199635903	0.076186228	0.165537862	0.441841292	0.229483942
0.736	0.118137588	0.200484921	0.076235774	0.163816367	0.438252452	0.22842285
0.737	0.118913866	0.201295017	0.076276338	0.162114672	0.434703453	0.227374058
0.738	0.119675541	0.202066158	0.076308136	0.160433111	0.431194777	0.226336451
0.739	0.120422282	0.202798371	0.076331394	0.158771966	0.427726894	0.225308895
0.74	0.121153769	0.203491742	0.076346348	0.157131466	0.424300272	0.224290236
0.741	0.121869689	0.204146413	0.076353245	0.155511794	0.420915365	0.223279308
0.742	0.12256974	0.204762585	0.076352339	0.153913082	0.41757262	0.222274932
0.743	0.12325363	0.205340511	0.076343896	0.152335415	0.414272471	0.221275922
0.744	0.123921077	0.205880504	0.076328185	0.15077883	0.411015341	0.220281089
0.745	0.124571808	0.206382926	0.076305488	0.14924332	0.40780164	0.219289243
0.746	0.125205562	0.206848194	0.076276089	0.147728835	0.404631761	0.218299196
0.747	0.125822084	0.207276774	0.076240282	0.146235281	0.40150608	0.217309769
0.748	0.126421134	0.207669182	0.076198365	0.144762526	0.398424959	0.216319792
0.749	0.127002479	0.208025981	0.076150641	0.143310396	0.395388735	0.215328107
0.75	0.127565898	0.208347777	0.076097417	0.141878681	0.392397729	0.214333574
0.751	0.12811118	0.208635221	0.076039005	0.140467137	0.389452235	0.213335073
0.752	0.128638124	0.208889003	0.07597572	0.139075484	0.386552525	0.212331504
0.753	0.129146541	0.209109851	0.075907876	0.137703413	0.383698843	0.211321796
0.754	0.129636252	0.209298531	0.075835792	0.136350582	0.380891408	0.210304904
0.755	0.130107088	0.209455838	0.075759787	0.135016626	0.378130407	0.209279816
0.756	0.130558892	0.209582601	0.075680179	0.133701151	0.375415996	0.208245553
0.757	0.130991519	0.209679673	0.075597286	0.132403741	0.372748302	0.207201172
0.758	0.131404832	0.209747934	0.075511423	0.131123959	0.370127413	0.20614577
0.759	0.131798708	0.209788285	0.075422904	0.129861347	0.367553384	0.205078482
0.76	0.132173035	0.209801646	0.07533204	0.128615434	0.365026232	0.203998491
0.761	0.132527709	0.209788954	0.075239138	0.127385731	0.362545937	0.20290502
0.762	0.132862642	0.209751158	0.075144499	0.126171739	0.360112438	0.201797343
0.763	0.133177753	0.209689217	0.075048421	0.124972947	0.357725632	0.200674782
0.764	0.133472974	0.209604099	0.074951194	0.123788836	0.355385375	0.199536707
0.765	0.133748248	0.209496777	0.074853103	0.122618884	0.353091481	0.198382544
0.766	0.134003529	0.209368222	0.074754424	0.121462563	0.350843717	0.197211769
0.767	0.134238782	0.20921941	0.074655427	0.120319344	0.348641808	0.196023913
0.768	0.134453983	0.20905131	0.07455637	0.1191887	0.34648543	0.194818565
0.769	0.134649117	0.208864886	0.074457506	0.118070104	0.344374216	0.193595368
0.77	0.134824181	0.208661093	0.074359075	0.116963038	0.342307751	0.192354022
0.771	0.134979184	0.208440876	0.074261308	0.115866987	0.340285572	0.191094285
0.772	0.135114144	0.208205168	0.074164427	0.114781447	0.33830717	0.189815973
0.773	0.135229087	0.207954884	0.074068638	0.113705922	0.33637199	0.188518961
0.774	0.135324053	0.207690924	0.073974142	0.112639931	0.334479427	0.18720318
0.775	0.135399089	0.207414168	0.073881121	0.111583006	0.332628832	0.185868619
0.776	0.135454253	0.207125475	0.07378975	0.110534692	0.330819508	0.184515325
0.777	0.135489613	0.206825681	0.07370019	0.109494553	0.329050714	0.183143401
0.778	0.135505246	0.206515599	0.073612588	0.10846217	0.327321663	0.181753006
0.779	0.135501238	0.206196014	0.073527078	0.107437143	0.325631524	0.180344352
0.78	0.135477684	0.205867685	0.073443782	0.106419094	0.323979424	0.178917708
0.781	0.135434689	0.205531344	0.073362807	0.105407662	0.322364447	0.177473391
